<?xml version="1.0" standalone="no"?>
<!DOCTYPE svg PUBLIC "-//W3C//DTD SVG 20010904//EN"
 "http://www.w3.org/TR/2001/REC-SVG-20010904/DTD/svg10.dtd">
<svg version="1.0" xmlns="http://www.w3.org/2000/svg"
 width="284.000000pt" height="284.000000pt" viewBox="0 0 284.000000 284.000000"
 preserveAspectRatio="xMidYMid meet">
<metadata>
Created by potrace 1.11, written by Peter Selinger 2001-2013
</metadata>
<g transform="translate(0.000000,284.000000) scale(0.100000,-0.100000)"
fill="#000000" stroke="none">
<path d="M1390 2683 c0 -4 -21 -8 -48 -9 -52 -1 -127 -11 -184 -24 -21 -4 -38
-6 -38 -3 0 3 -6 0 -14 -6 -8 -7 -27 -14 -43 -17 -15 -3 -37 -11 -48 -18 -11
-6 -27 -12 -35 -11 -8 0 -21 -5 -28 -12 -8 -7 -17 -11 -22 -8 -5 3 -10 2 -12
-2 -1 -5 -30 -21 -63 -37 -33 -16 -71 -38 -84 -48 -13 -10 -27 -16 -30 -13 -4
2 -14 -5 -21 -16 -8 -10 -19 -19 -25 -19 -6 0 -33 -21 -61 -47 -28 -27 -54
-49 -57 -51 -10 -4 -95 -92 -90 -92 2 0 -12 -17 -32 -37 -20 -21 -44 -50 -53
-65 -9 -16 -20 -28 -24 -28 -4 0 -8 -6 -8 -14 0 -8 -8 -22 -18 -32 -9 -10 -17
-20 -18 -23 -2 -16 -28 -61 -36 -61 -4 0 -7 -3 -6 -7 1 -5 -8 -27 -19 -51 -12
-23 -16 -39 -10 -35 7 3 4 -3 -6 -14 -10 -12 -19 -28 -21 -36 -1 -8 -8 -23
-16 -33 -9 -11 -10 -15 -2 -10 6 4 2 -10 -10 -30 -12 -21 -16 -34 -9 -30 10 7
11 4 2 -13 -7 -11 -9 -21 -5 -21 3 0 0 -7 -7 -17 -8 -9 -13 -18 -11 -20 1 -1
2 -4 1 -5 -4 -14 -9 -51 -13 -89 -2 -26 -5 -51 -8 -55 -7 -15 -2 -255 7 -314
4 -30 9 -62 10 -70 15 -104 124 -390 157 -411 5 -3 9 -9 9 -13 -1 -8 65 -111
92 -144 53 -62 247 -249 247 -237 0 3 10 -3 22 -15 12 -11 26 -20 31 -20 4 0
15 -6 22 -13 34 -29 45 -37 55 -37 6 0 18 -7 27 -15 8 -8 19 -13 24 -10 5 4 9
2 9 -3 0 -9 37 -25 53 -23 4 1 7 -4 7 -10 0 -5 4 -8 9 -4 5 3 12 1 16 -5 3 -5
17 -10 30 -10 13 0 27 -5 30 -10 3 -6 15 -10 26 -10 10 0 19 -4 19 -8 0 -4 8
-8 18 -8 9 -1 31 -4 47 -8 17 -4 46 -10 65 -13 19 -3 36 -8 38 -12 1 -3 17 -6
36 -5 18 1 52 -2 74 -6 25 -4 45 -3 51 3 6 6 11 7 11 1 0 -10 111 -11 128 0 7
4 12 2 12 -4 0 -6 5 -8 12 -4 7 4 31 8 54 9 23 0 50 7 60 15 11 9 15 10 10 3
-4 -7 -2 -13 3 -13 6 0 11 3 11 8 0 4 15 8 33 9 50 3 99 14 129 29 15 8 35 16
45 17 10 2 40 14 66 25 27 12 52 22 57 22 5 0 10 3 12 8 2 4 25 18 52 32 27
13 54 29 60 35 6 5 34 26 61 45 28 19 52 38 53 42 2 4 8 8 13 8 17 0 239 230
239 248 0 3 11 19 24 36 41 55 115 200 145 287 32 91 64 245 55 260 -3 5 0 9
5 9 11 0 9 342 -3 393 -3 15 -8 37 -11 50 -14 68 -36 139 -60 197 -31 73 -75
162 -84 170 -3 3 -15 22 -25 43 -11 20 -22 37 -26 37 -4 0 -11 10 -17 23 -19
42 -170 202 -242 257 -18 14 -46 36 -62 48 -16 13 -29 21 -29 17 0 -3 -10 3
-21 14 -32 30 -227 126 -295 146 -32 10 -68 21 -79 26 -30 11 -141 29 -212 34
-35 2 -67 6 -72 10 -5 3 -12 1 -16 -4 -4 -7 -15 -7 -30 -1 -16 6 -25 6 -25 -1
0 -6 -7 -6 -20 1 -11 6 -20 7 -20 3z m276 -435 c3 -4 9 -6 14 -3 5 3 11 1 15
-5 3 -5 15 -10 26 -10 10 0 19 -4 19 -8 0 -5 7 -9 15 -9 21 0 145 -65 145 -75
0 -5 4 -7 9 -4 5 3 14 -1 21 -9 7 -8 16 -15 21 -15 25 0 196 -174 244 -249 40
-61 91 -163 101 -201 2 -8 8 -33 14 -55 16 -60 24 -140 24 -240 0 -116 -12
-190 -43 -267 -6 -16 -8 -28 -4 -28 3 0 -2 -9 -12 -20 -10 -11 -15 -20 -11
-20 6 0 -23 -56 -68 -134 -15 -25 -43 -59 -87 -106 -21 -21 -34 -41 -31 -44 3
-3 0 -6 -6 -6 -6 0 -27 -15 -46 -32 -42 -40 -78 -67 -90 -67 -5 1 -12 -4 -16
-10 -3 -7 -42 -29 -84 -50 -67 -33 -85 -38 -125 -33 -25 2 -54 5 -63 5 -10 1
-18 5 -18 9 0 4 -3 7 -7 6 -19 -5 -154 54 -185 80 -10 8 -18 12 -18 8 0 -4
-14 4 -31 18 -17 14 -34 26 -39 26 -11 0 -138 127 -176 175 -27 35 -104 161
-104 169 0 2 -8 21 -17 42 -9 22 -17 41 -18 44 0 3 -6 15 -13 26 -6 12 -9 24
-6 26 2 3 0 18 -6 33 -28 72 -30 291 -4 395 3 14 7 32 9 40 1 8 6 24 10 35 4
11 13 37 21 58 8 20 10 37 6 37 -4 0 1 5 11 11 9 5 17 19 17 29 0 11 5 20 10
20 6 0 10 5 10 11 0 11 55 95 77 117 7 8 12 17 10 20 -1 4 12 21 30 39 18 17
33 29 33 27 0 -3 13 8 28 23 45 44 86 77 99 79 7 1 19 9 27 17 14 13 122 68
156 79 26 8 100 6 106 -4z"/>
</g>
</svg>
